<mxfile host="Electron" agent="Mozilla/5.0 (Windows NT 10.0; Win64; x64) AppleWebKit/537.36 (KHTML, like Gecko) draw.io/26.0.9 Chrome/128.0.6613.186 Electron/32.2.5 Safari/537.36" version="26.0.9">
  <diagram name="Page-1" id="Ziooi1kFB1PR6lYrfJap">
    <mxGraphModel dx="1900" dy="621" grid="1" gridSize="10" guides="1" tooltips="1" connect="1" arrows="1" fold="1" page="1" pageScale="1" pageWidth="850" pageHeight="1100" background="#ffffff" math="0" shadow="0">
      <root>
        <mxCell id="0" />
        <mxCell id="1" parent="0" />
        <mxCell id="pwxGj4QJEmWvPwFnOic8-1" value="User" style="swimlane;fontStyle=1;align=center;verticalAlign=top;childLayout=stackLayout;horizontal=1;startSize=26;horizontalStack=0;resizeParent=1;resizeParentMax=0;resizeLast=0;collapsible=1;marginBottom=0;whiteSpace=wrap;html=1;fillColor=#e51400;fontColor=#ffffff;strokeColor=#B20000;" parent="1" vertex="1">
          <mxGeometry x="125" y="10" width="230" height="172" as="geometry" />
        </mxCell>
        <mxCell id="pwxGj4QJEmWvPwFnOic8-2" value="# userID:string&lt;div&gt;# name:string&lt;/div&gt;&lt;div&gt;# password:string&lt;/div&gt;&lt;div&gt;# libraryCardID:string&lt;/div&gt;" style="text;strokeColor=#b85450;fillColor=#f8cecc;align=left;verticalAlign=top;spacingLeft=4;spacingRight=4;overflow=hidden;rotatable=0;points=[[0,0.5],[1,0.5]];portConstraint=eastwest;whiteSpace=wrap;html=1;gradientColor=#ea6b66;" parent="pwxGj4QJEmWvPwFnOic8-1" vertex="1">
          <mxGeometry y="26" width="230" height="74" as="geometry" />
        </mxCell>
        <mxCell id="pwxGj4QJEmWvPwFnOic8-4" value="+ virtual login(id:string,pass:string):void&lt;div&gt;+ searchBook(title:string): void&lt;/div&gt;&lt;div&gt;+ viewAvailabilty(): void&lt;/div&gt;&lt;div&gt;+ viewBorrowHistory(): void&lt;/div&gt;" style="text;strokeColor=#b85450;fillColor=#f8cecc;align=left;verticalAlign=top;spacingLeft=4;spacingRight=4;overflow=hidden;rotatable=0;points=[[0,0.5],[1,0.5]];portConstraint=eastwest;whiteSpace=wrap;html=1;gradientColor=#ea6b66;" parent="pwxGj4QJEmWvPwFnOic8-1" vertex="1">
          <mxGeometry y="100" width="230" height="72" as="geometry" />
        </mxCell>
        <mxCell id="pwxGj4QJEmWvPwFnOic8-5" value="BorrowRecord" style="swimlane;fontStyle=1;align=center;verticalAlign=top;childLayout=stackLayout;horizontal=1;startSize=26;horizontalStack=0;resizeParent=1;resizeParentMax=0;resizeLast=0;collapsible=1;marginBottom=0;whiteSpace=wrap;html=1;fillColor=#6a00ff;fontColor=#ffffff;strokeColor=#3700CC;" parent="1" vertex="1">
          <mxGeometry x="-150" y="450" width="190" height="152" as="geometry" />
        </mxCell>
        <mxCell id="pwxGj4QJEmWvPwFnOic8-6" value="- member: Member&lt;div&gt;- book: Book&lt;/div&gt;&lt;div&gt;- borrowDate: Date&lt;/div&gt;&lt;div&gt;- returnDate: Date&lt;/div&gt;&lt;div&gt;- fine: Fine&lt;/div&gt;" style="text;strokeColor=#6c8ebf;fillColor=#dae8fc;align=left;verticalAlign=top;spacingLeft=4;spacingRight=4;overflow=hidden;rotatable=0;points=[[0,0.5],[1,0.5]];portConstraint=eastwest;whiteSpace=wrap;html=1;gradientColor=#7ea6e0;" parent="pwxGj4QJEmWvPwFnOic8-5" vertex="1">
          <mxGeometry y="26" width="190" height="84" as="geometry" />
        </mxCell>
        <mxCell id="pwxGj4QJEmWvPwFnOic8-8" value="+ calculate(): float&lt;div&gt;+ sendReturnNotification(): void&lt;/div&gt;" style="text;strokeColor=#6c8ebf;fillColor=#dae8fc;align=left;verticalAlign=top;spacingLeft=4;spacingRight=4;overflow=hidden;rotatable=0;points=[[0,0.5],[1,0.5]];portConstraint=eastwest;whiteSpace=wrap;html=1;gradientColor=#7ea6e0;" parent="pwxGj4QJEmWvPwFnOic8-5" vertex="1">
          <mxGeometry y="110" width="190" height="42" as="geometry" />
        </mxCell>
        <mxCell id="pwxGj4QJEmWvPwFnOic8-9" value="Librarian" style="swimlane;fontStyle=1;align=center;verticalAlign=top;childLayout=stackLayout;horizontal=1;startSize=26;horizontalStack=0;resizeParent=1;resizeParentMax=0;resizeLast=0;collapsible=1;marginBottom=0;whiteSpace=wrap;html=1;fillColor=#008a00;fontColor=#ffffff;strokeColor=#005700;" parent="1" vertex="1">
          <mxGeometry x="120" y="280" width="240" height="110" as="geometry" />
        </mxCell>
        <mxCell id="pwxGj4QJEmWvPwFnOic8-12" value="+ issueBook(b:Book,m:Member): void&lt;div&gt;+ acceptReturn(b:Book,m:Member): void&lt;/div&gt;&lt;div&gt;+ addBook(b:Book): void&lt;/div&gt;&lt;div&gt;+ removeBook(bookID:string)&lt;/div&gt;&lt;div&gt;+ reserveBook(b:Book,m:Member): void&lt;/div&gt;" style="text;strokeColor=#82b366;fillColor=#d5e8d4;align=left;verticalAlign=top;spacingLeft=4;spacingRight=4;overflow=hidden;rotatable=0;points=[[0,0.5],[1,0.5]];portConstraint=eastwest;whiteSpace=wrap;html=1;gradientColor=#97d077;" parent="pwxGj4QJEmWvPwFnOic8-9" vertex="1">
          <mxGeometry y="26" width="240" height="84" as="geometry" />
        </mxCell>
        <mxCell id="pwxGj4QJEmWvPwFnOic8-13" value="FIne" style="swimlane;fontStyle=1;align=center;verticalAlign=top;childLayout=stackLayout;horizontal=1;startSize=26;horizontalStack=0;resizeParent=1;resizeParentMax=0;resizeLast=0;collapsible=1;marginBottom=0;whiteSpace=wrap;html=1;fillColor=#e3c800;fontColor=#000000;strokeColor=#B09500;" parent="1" vertex="1">
          <mxGeometry x="-85" y="675" width="160" height="102" as="geometry" />
        </mxCell>
        <mxCell id="pwxGj4QJEmWvPwFnOic8-14" value="- amount: float" style="text;strokeColor=#d6b656;fillColor=#fff2cc;align=left;verticalAlign=top;spacingLeft=4;spacingRight=4;overflow=hidden;rotatable=0;points=[[0,0.5],[1,0.5]];portConstraint=eastwest;whiteSpace=wrap;html=1;" parent="pwxGj4QJEmWvPwFnOic8-13" vertex="1">
          <mxGeometry y="26" width="160" height="26" as="geometry" />
        </mxCell>
        <mxCell id="pwxGj4QJEmWvPwFnOic8-16" value="+ calculate(daysLate: int)&lt;div&gt;+ pay(amount: float): void&lt;/div&gt;" style="text;strokeColor=#d6b656;fillColor=#fff2cc;align=left;verticalAlign=top;spacingLeft=4;spacingRight=4;overflow=hidden;rotatable=0;points=[[0,0.5],[1,0.5]];portConstraint=eastwest;whiteSpace=wrap;html=1;" parent="pwxGj4QJEmWvPwFnOic8-13" vertex="1">
          <mxGeometry y="52" width="160" height="50" as="geometry" />
        </mxCell>
        <mxCell id="pwxGj4QJEmWvPwFnOic8-17" value="Admin" style="swimlane;fontStyle=1;align=center;verticalAlign=top;childLayout=stackLayout;horizontal=1;startSize=26;horizontalStack=0;resizeParent=1;resizeParentMax=0;resizeLast=0;collapsible=1;marginBottom=0;whiteSpace=wrap;html=1;fillColor=#f0a30a;fontColor=#000000;strokeColor=#BD7000;" parent="1" vertex="1">
          <mxGeometry x="450" y="280" width="260" height="100" as="geometry" />
        </mxCell>
        <mxCell id="pwxGj4QJEmWvPwFnOic8-20" value="+ manageRoles(u:User,newRole:string): void&lt;div&gt;+ reserveBook(b:Book,m:Member): void&lt;/div&gt;&lt;div&gt;+ addBook(b:Book): void&lt;/div&gt;&lt;div&gt;+ removeBook(bookID: string): void&lt;/div&gt;" style="text;strokeColor=#b46504;fillColor=#fad7ac;align=left;verticalAlign=top;spacingLeft=4;spacingRight=4;overflow=hidden;rotatable=0;points=[[0,0.5],[1,0.5]];portConstraint=eastwest;whiteSpace=wrap;html=1;" parent="pwxGj4QJEmWvPwFnOic8-17" vertex="1">
          <mxGeometry y="26" width="260" height="74" as="geometry" />
        </mxCell>
        <mxCell id="pwxGj4QJEmWvPwFnOic8-25" value="Reservation" style="swimlane;fontStyle=1;align=center;verticalAlign=top;childLayout=stackLayout;horizontal=1;startSize=26;horizontalStack=0;resizeParent=1;resizeParentMax=0;resizeLast=0;collapsible=1;marginBottom=0;whiteSpace=wrap;html=1;fillColor=#ffff88;strokeColor=#36393d;" parent="1" vertex="1">
          <mxGeometry x="145" y="680" width="160" height="116" as="geometry" />
        </mxCell>
        <mxCell id="pwxGj4QJEmWvPwFnOic8-26" value="- member: Member&lt;div&gt;- book: Book&lt;/div&gt;&lt;div&gt;- reserveDate: Date&lt;/div&gt;" style="text;strokeColor=#36393d;fillColor=#FFFFCC;align=left;verticalAlign=top;spacingLeft=4;spacingRight=4;overflow=hidden;rotatable=0;points=[[0,0.5],[1,0.5]];portConstraint=eastwest;whiteSpace=wrap;html=1;" parent="pwxGj4QJEmWvPwFnOic8-25" vertex="1">
          <mxGeometry y="26" width="160" height="64" as="geometry" />
        </mxCell>
        <mxCell id="pwxGj4QJEmWvPwFnOic8-28" value="+ reserveBook(): void" style="text;strokeColor=#36393d;fillColor=#FFFFCC;align=left;verticalAlign=top;spacingLeft=4;spacingRight=4;overflow=hidden;rotatable=0;points=[[0,0.5],[1,0.5]];portConstraint=eastwest;whiteSpace=wrap;html=1;" parent="pwxGj4QJEmWvPwFnOic8-25" vertex="1">
          <mxGeometry y="90" width="160" height="26" as="geometry" />
        </mxCell>
        <mxCell id="pwxGj4QJEmWvPwFnOic8-29" value="Notification" style="swimlane;fontStyle=1;align=center;verticalAlign=top;childLayout=stackLayout;horizontal=1;startSize=26;horizontalStack=0;resizeParent=1;resizeParentMax=0;resizeLast=0;collapsible=1;marginBottom=0;whiteSpace=wrap;html=1;fillColor=#76608a;fontColor=#ffffff;strokeColor=#432D57;" parent="1" vertex="1">
          <mxGeometry x="350" y="571" width="160" height="96" as="geometry" />
        </mxCell>
        <mxCell id="pwxGj4QJEmWvPwFnOic8-30" value="- message: string&lt;div&gt;- recipient: User&lt;/div&gt;" style="text;strokeColor=#9673a6;fillColor=#e1d5e7;align=left;verticalAlign=top;spacingLeft=4;spacingRight=4;overflow=hidden;rotatable=0;points=[[0,0.5],[1,0.5]];portConstraint=eastwest;whiteSpace=wrap;html=1;" parent="pwxGj4QJEmWvPwFnOic8-29" vertex="1">
          <mxGeometry y="26" width="160" height="44" as="geometry" />
        </mxCell>
        <mxCell id="pwxGj4QJEmWvPwFnOic8-32" value="+ send(): void" style="text;strokeColor=#9673a6;fillColor=#e1d5e7;align=left;verticalAlign=top;spacingLeft=4;spacingRight=4;overflow=hidden;rotatable=0;points=[[0,0.5],[1,0.5]];portConstraint=eastwest;whiteSpace=wrap;html=1;" parent="pwxGj4QJEmWvPwFnOic8-29" vertex="1">
          <mxGeometry y="70" width="160" height="26" as="geometry" />
        </mxCell>
        <mxCell id="pwxGj4QJEmWvPwFnOic8-33" value="Feedback" style="swimlane;fontStyle=1;align=center;verticalAlign=top;childLayout=stackLayout;horizontal=1;startSize=26;horizontalStack=0;resizeParent=1;resizeParentMax=0;resizeLast=0;collapsible=1;marginBottom=0;whiteSpace=wrap;html=1;fillColor=#0050ef;fontColor=#ffffff;strokeColor=#001DBC;" parent="1" vertex="1">
          <mxGeometry x="510" y="436" width="160" height="106" as="geometry" />
        </mxCell>
        <mxCell id="pwxGj4QJEmWvPwFnOic8-34" value="- feedbackID: string&lt;div&gt;- user User&lt;/div&gt;&lt;div&gt;- message: string&lt;/div&gt;" style="text;strokeColor=#36393d;fillColor=#cce5ff;align=left;verticalAlign=top;spacingLeft=4;spacingRight=4;overflow=hidden;rotatable=0;points=[[0,0.5],[1,0.5]];portConstraint=eastwest;whiteSpace=wrap;html=1;" parent="pwxGj4QJEmWvPwFnOic8-33" vertex="1">
          <mxGeometry y="26" width="160" height="54" as="geometry" />
        </mxCell>
        <mxCell id="pwxGj4QJEmWvPwFnOic8-36" value="+ submit(): void" style="text;strokeColor=#36393d;fillColor=#cce5ff;align=left;verticalAlign=top;spacingLeft=4;spacingRight=4;overflow=hidden;rotatable=0;points=[[0,0.5],[1,0.5]];portConstraint=eastwest;whiteSpace=wrap;html=1;" parent="pwxGj4QJEmWvPwFnOic8-33" vertex="1">
          <mxGeometry y="80" width="160" height="26" as="geometry" />
        </mxCell>
        <mxCell id="pwxGj4QJEmWvPwFnOic8-37" value="Book" style="swimlane;fontStyle=1;align=center;verticalAlign=top;childLayout=stackLayout;horizontal=1;startSize=26;horizontalStack=0;resizeParent=1;resizeParentMax=0;resizeLast=0;collapsible=1;marginBottom=0;whiteSpace=wrap;html=1;fillColor=#d80073;fontColor=#ffffff;strokeColor=#A50040;" parent="1" vertex="1">
          <mxGeometry x="125" y="455" width="200" height="142" as="geometry" />
        </mxCell>
        <mxCell id="pwxGj4QJEmWvPwFnOic8-38" value="- bookID: string&lt;div&gt;- title: string&lt;/div&gt;&lt;div&gt;- author: string&lt;/div&gt;&lt;div&gt;- isAvailable: bool&lt;/div&gt;" style="text;strokeColor=#996185;fillColor=#e6d0de;align=left;verticalAlign=top;spacingLeft=4;spacingRight=4;overflow=hidden;rotatable=0;points=[[0,0.5],[1,0.5]];portConstraint=eastwest;whiteSpace=wrap;html=1;gradientColor=#d5739d;" parent="pwxGj4QJEmWvPwFnOic8-37" vertex="1">
          <mxGeometry y="26" width="200" height="74" as="geometry" />
        </mxCell>
        <mxCell id="pwxGj4QJEmWvPwFnOic8-40" value="+ getAvailability(): bool&lt;div&gt;+ updateRecord(title: string): void&lt;/div&gt;" style="text;strokeColor=#996185;fillColor=#e6d0de;align=left;verticalAlign=top;spacingLeft=4;spacingRight=4;overflow=hidden;rotatable=0;points=[[0,0.5],[1,0.5]];portConstraint=eastwest;whiteSpace=wrap;html=1;gradientColor=#d5739d;" parent="pwxGj4QJEmWvPwFnOic8-37" vertex="1">
          <mxGeometry y="100" width="200" height="42" as="geometry" />
        </mxCell>
        <mxCell id="pwxGj4QJEmWvPwFnOic8-41" value="Member" style="swimlane;fontStyle=1;align=center;verticalAlign=top;childLayout=stackLayout;horizontal=1;startSize=26;horizontalStack=0;resizeParent=1;resizeParentMax=0;resizeLast=0;collapsible=1;marginBottom=0;whiteSpace=wrap;html=1;fillColor=#1ba1e2;fontColor=#ffffff;strokeColor=#006EAF;" parent="1" vertex="1">
          <mxGeometry x="-135" y="280" width="190" height="100" as="geometry" />
        </mxCell>
        <mxCell id="pwxGj4QJEmWvPwFnOic8-44" value="+ borrowBook(b:Book): void&lt;div&gt;+ returnBook(b:Book): void&lt;/div&gt;&lt;div&gt;+ payFine(amount:float): void&lt;/div&gt;&lt;div&gt;+ giveFeedback(msg:string): void&lt;/div&gt;" style="text;strokeColor=#10739e;fillColor=#b1ddf0;align=left;verticalAlign=top;spacingLeft=4;spacingRight=4;overflow=hidden;rotatable=0;points=[[0,0.5],[1,0.5]];portConstraint=eastwest;whiteSpace=wrap;html=1;" parent="pwxGj4QJEmWvPwFnOic8-41" vertex="1">
          <mxGeometry y="26" width="190" height="74" as="geometry" />
        </mxCell>
        <mxCell id="s6ThnofSbm5kTRvDSQZk-1" value="" style="endArrow=classic;html=1;rounded=0;exitX=0.5;exitY=0;exitDx=0;exitDy=0;entryX=0;entryY=0.5;entryDx=0;entryDy=0;edgeStyle=orthogonalEdgeStyle;" parent="1" source="pwxGj4QJEmWvPwFnOic8-41" target="pwxGj4QJEmWvPwFnOic8-4" edge="1">
          <mxGeometry width="50" height="50" relative="1" as="geometry">
            <mxPoint x="-10" y="200" as="sourcePoint" />
            <mxPoint x="40" y="150" as="targetPoint" />
          </mxGeometry>
        </mxCell>
        <mxCell id="s6ThnofSbm5kTRvDSQZk-2" value="" style="endArrow=classic;html=1;rounded=0;exitX=0.5;exitY=0;exitDx=0;exitDy=0;entryX=0.503;entryY=1.028;entryDx=0;entryDy=0;entryPerimeter=0;" parent="1" source="pwxGj4QJEmWvPwFnOic8-9" target="pwxGj4QJEmWvPwFnOic8-4" edge="1">
          <mxGeometry width="50" height="50" relative="1" as="geometry">
            <mxPoint x="210" y="270" as="sourcePoint" />
            <mxPoint x="260" y="220" as="targetPoint" />
          </mxGeometry>
        </mxCell>
        <mxCell id="s6ThnofSbm5kTRvDSQZk-3" value="" style="endArrow=classic;html=1;rounded=0;exitX=0.5;exitY=0;exitDx=0;exitDy=0;entryX=1;entryY=0.5;entryDx=0;entryDy=0;edgeStyle=orthogonalEdgeStyle;" parent="1" source="pwxGj4QJEmWvPwFnOic8-17" target="pwxGj4QJEmWvPwFnOic8-4" edge="1">
          <mxGeometry width="50" height="50" relative="1" as="geometry">
            <mxPoint x="490" y="180" as="sourcePoint" />
            <mxPoint x="540" y="130" as="targetPoint" />
          </mxGeometry>
        </mxCell>
        <mxCell id="s6ThnofSbm5kTRvDSQZk-4" value="" style="endArrow=open;html=1;endSize=12;startArrow=diamondThin;startSize=14;startFill=1;edgeStyle=orthogonalEdgeStyle;align=left;verticalAlign=bottom;rounded=0;entryX=0.5;entryY=0;entryDx=0;entryDy=0;exitX=0.501;exitY=0.997;exitDx=0;exitDy=0;exitPerimeter=0;" parent="1" source="pwxGj4QJEmWvPwFnOic8-44" target="pwxGj4QJEmWvPwFnOic8-5" edge="1">
          <mxGeometry x="-1" y="3" relative="1" as="geometry">
            <mxPoint x="-145" y="400" as="sourcePoint" />
            <mxPoint x="15" y="400" as="targetPoint" />
          </mxGeometry>
        </mxCell>
        <mxCell id="s6ThnofSbm5kTRvDSQZk-5" value="" style="endArrow=open;html=1;endSize=12;startArrow=diamondThin;startSize=14;startFill=1;edgeStyle=orthogonalEdgeStyle;align=left;verticalAlign=bottom;rounded=0;exitX=0;exitY=0.722;exitDx=0;exitDy=0;exitPerimeter=0;entryX=1;entryY=0.5;entryDx=0;entryDy=0;" parent="1" source="pwxGj4QJEmWvPwFnOic8-38" target="pwxGj4QJEmWvPwFnOic8-6" edge="1">
          <mxGeometry x="-0.9102" y="-14" relative="1" as="geometry">
            <mxPoint x="80" y="680" as="sourcePoint" />
            <mxPoint x="240" y="680" as="targetPoint" />
            <mxPoint as="offset" />
          </mxGeometry>
        </mxCell>
        <mxCell id="s6ThnofSbm5kTRvDSQZk-6" value="" style="endArrow=open;html=1;endSize=12;startArrow=diamondThin;startSize=14;startFill=1;edgeStyle=orthogonalEdgeStyle;align=left;verticalAlign=bottom;rounded=0;entryX=0.488;entryY=1.01;entryDx=0;entryDy=0;entryPerimeter=0;exitX=0.5;exitY=0;exitDx=0;exitDy=0;" parent="1" source="pwxGj4QJEmWvPwFnOic8-13" target="pwxGj4QJEmWvPwFnOic8-8" edge="1">
          <mxGeometry x="-1" y="3" relative="1" as="geometry">
            <mxPoint x="-160" y="660" as="sourcePoint" />
            <mxPoint y="660" as="targetPoint" />
          </mxGeometry>
        </mxCell>
        <mxCell id="s6ThnofSbm5kTRvDSQZk-8" value="" style="endArrow=none;html=1;edgeStyle=orthogonalEdgeStyle;rounded=0;exitX=1.016;exitY=0.146;exitDx=0;exitDy=0;exitPerimeter=0;entryX=-0.009;entryY=0.873;entryDx=0;entryDy=0;entryPerimeter=0;" parent="1" source="pwxGj4QJEmWvPwFnOic8-4" target="pwxGj4QJEmWvPwFnOic8-34" edge="1">
          <mxGeometry relative="1" as="geometry">
            <mxPoint x="390" y="220" as="sourcePoint" />
            <mxPoint x="550" y="220" as="targetPoint" />
          </mxGeometry>
        </mxCell>
        <mxCell id="s6ThnofSbm5kTRvDSQZk-9" value="1" style="edgeLabel;resizable=0;html=1;align=left;verticalAlign=bottom;" parent="s6ThnofSbm5kTRvDSQZk-8" connectable="0" vertex="1">
          <mxGeometry x="-1" relative="1" as="geometry" />
        </mxCell>
        <mxCell id="s6ThnofSbm5kTRvDSQZk-10" value="1" style="edgeLabel;resizable=0;html=1;align=right;verticalAlign=bottom;" parent="s6ThnofSbm5kTRvDSQZk-8" connectable="0" vertex="1">
          <mxGeometry x="1" relative="1" as="geometry" />
        </mxCell>
        <mxCell id="s6ThnofSbm5kTRvDSQZk-11" value="" style="endArrow=none;html=1;rounded=0;entryX=0.25;entryY=0.985;entryDx=0;entryDy=0;entryPerimeter=0;exitX=-0.002;exitY=0.2;exitDx=0;exitDy=0;exitPerimeter=0;edgeStyle=orthogonalEdgeStyle;" parent="1" source="pwxGj4QJEmWvPwFnOic8-16" target="pwxGj4QJEmWvPwFnOic8-8" edge="1">
          <mxGeometry width="50" height="50" relative="1" as="geometry">
            <mxPoint x="-230" y="700" as="sourcePoint" />
            <mxPoint x="-180" y="650" as="targetPoint" />
          </mxGeometry>
        </mxCell>
        <mxCell id="s6ThnofSbm5kTRvDSQZk-12" value="1" style="text;html=1;align=center;verticalAlign=middle;resizable=0;points=[];autosize=1;strokeColor=none;fillColor=none;" parent="1" vertex="1">
          <mxGeometry x="-135" y="608" width="30" height="30" as="geometry" />
        </mxCell>
        <mxCell id="s6ThnofSbm5kTRvDSQZk-14" value="" style="endArrow=none;html=1;rounded=0;entryX=0;entryY=0.909;entryDx=0;entryDy=0;entryPerimeter=0;exitX=0.002;exitY=0.615;exitDx=0;exitDy=0;exitPerimeter=0;edgeStyle=orthogonalEdgeStyle;" parent="1" source="pwxGj4QJEmWvPwFnOic8-6" target="pwxGj4QJEmWvPwFnOic8-2" edge="1">
          <mxGeometry width="50" height="50" relative="1" as="geometry">
            <mxPoint x="-100" y="160" as="sourcePoint" />
            <mxPoint x="-50" y="110" as="targetPoint" />
            <Array as="points">
              <mxPoint x="-150" y="528" />
              <mxPoint x="-190" y="528" />
              <mxPoint x="-190" y="103" />
            </Array>
          </mxGeometry>
        </mxCell>
        <mxCell id="s6ThnofSbm5kTRvDSQZk-15" value="many" style="text;html=1;align=center;verticalAlign=middle;resizable=0;points=[];autosize=1;strokeColor=none;fillColor=none;" parent="1" vertex="1">
          <mxGeometry x="-205" y="518" width="50" height="30" as="geometry" />
        </mxCell>
        <mxCell id="s6ThnofSbm5kTRvDSQZk-16" value="1" style="text;html=1;align=center;verticalAlign=middle;resizable=0;points=[];autosize=1;strokeColor=none;fillColor=none;" parent="1" vertex="1">
          <mxGeometry x="95" y="78" width="30" height="30" as="geometry" />
        </mxCell>
        <mxCell id="s6ThnofSbm5kTRvDSQZk-17" value="" style="endArrow=none;html=1;rounded=0;entryX=1.014;entryY=0.789;entryDx=0;entryDy=0;entryPerimeter=0;exitX=0.457;exitY=0.021;exitDx=0;exitDy=0;exitPerimeter=0;edgeStyle=orthogonalEdgeStyle;" parent="1" source="pwxGj4QJEmWvPwFnOic8-29" target="pwxGj4QJEmWvPwFnOic8-4" edge="1">
          <mxGeometry width="50" height="50" relative="1" as="geometry">
            <mxPoint x="360" y="280" as="sourcePoint" />
            <mxPoint x="410" y="230" as="targetPoint" />
          </mxGeometry>
        </mxCell>
        <mxCell id="s6ThnofSbm5kTRvDSQZk-19" value="many" style="edgeLabel;html=1;align=center;verticalAlign=middle;resizable=0;points=[];" parent="s6ThnofSbm5kTRvDSQZk-17" vertex="1" connectable="0">
          <mxGeometry x="-0.9372" y="4" relative="1" as="geometry">
            <mxPoint x="-19" y="2" as="offset" />
          </mxGeometry>
        </mxCell>
        <mxCell id="s6ThnofSbm5kTRvDSQZk-18" value="1" style="text;html=1;align=center;verticalAlign=middle;resizable=0;points=[];autosize=1;strokeColor=none;fillColor=none;" parent="1" vertex="1">
          <mxGeometry x="355" y="168" width="30" height="30" as="geometry" />
        </mxCell>
        <mxCell id="s6ThnofSbm5kTRvDSQZk-20" value="" style="endArrow=none;html=1;rounded=0;entryX=-0.008;entryY=0.182;entryDx=0;entryDy=0;entryPerimeter=0;exitX=0.999;exitY=0.063;exitDx=0;exitDy=0;exitPerimeter=0;" parent="1" source="pwxGj4QJEmWvPwFnOic8-8" target="pwxGj4QJEmWvPwFnOic8-40" edge="1">
          <mxGeometry width="50" height="50" relative="1" as="geometry">
            <mxPoint x="30" y="660" as="sourcePoint" />
            <mxPoint x="80" y="610" as="targetPoint" />
          </mxGeometry>
        </mxCell>
        <mxCell id="s6ThnofSbm5kTRvDSQZk-21" value="many" style="text;html=1;align=center;verticalAlign=middle;resizable=0;points=[];autosize=1;strokeColor=none;fillColor=none;" parent="1" vertex="1">
          <mxGeometry x="25" y="560" width="50" height="30" as="geometry" />
        </mxCell>
        <mxCell id="s6ThnofSbm5kTRvDSQZk-22" value="1" style="text;html=1;align=center;verticalAlign=middle;resizable=0;points=[];autosize=1;strokeColor=none;fillColor=none;" parent="1" vertex="1">
          <mxGeometry x="95" y="560" width="30" height="30" as="geometry" />
        </mxCell>
        <mxCell id="s6ThnofSbm5kTRvDSQZk-23" value="" style="endArrow=none;html=1;rounded=0;entryX=0.493;entryY=1.064;entryDx=0;entryDy=0;entryPerimeter=0;exitX=0.5;exitY=0;exitDx=0;exitDy=0;" parent="1" source="pwxGj4QJEmWvPwFnOic8-25" target="pwxGj4QJEmWvPwFnOic8-40" edge="1">
          <mxGeometry width="50" height="50" relative="1" as="geometry">
            <mxPoint x="160" y="690" as="sourcePoint" />
            <mxPoint x="210" y="640" as="targetPoint" />
          </mxGeometry>
        </mxCell>
        <mxCell id="s6ThnofSbm5kTRvDSQZk-24" value="1" style="text;html=1;align=center;verticalAlign=middle;resizable=0;points=[];autosize=1;strokeColor=none;fillColor=none;" parent="1" vertex="1">
          <mxGeometry x="225" y="598" width="30" height="30" as="geometry" />
        </mxCell>
        <mxCell id="s6ThnofSbm5kTRvDSQZk-27" value="" style="endArrow=none;html=1;rounded=0;entryX=-0.004;entryY=0.743;entryDx=0;entryDy=0;entryPerimeter=0;edgeStyle=orthogonalEdgeStyle;exitX=0;exitY=0.5;exitDx=0;exitDy=0;" parent="1" source="pwxGj4QJEmWvPwFnOic8-26" target="pwxGj4QJEmWvPwFnOic8-4" edge="1">
          <mxGeometry width="50" height="50" relative="1" as="geometry">
            <mxPoint x="30" y="270" as="sourcePoint" />
            <mxPoint x="80" y="220" as="targetPoint" />
            <Array as="points">
              <mxPoint x="90" y="738" />
              <mxPoint x="90" y="171" />
            </Array>
          </mxGeometry>
        </mxCell>
        <mxCell id="s6ThnofSbm5kTRvDSQZk-28" value="1" style="text;html=1;align=center;verticalAlign=middle;resizable=0;points=[];autosize=1;strokeColor=none;fillColor=none;" parent="1" vertex="1">
          <mxGeometry x="-105" y="738" width="30" height="30" as="geometry" />
        </mxCell>
        <mxCell id="s6ThnofSbm5kTRvDSQZk-29" value="many" style="text;html=1;align=center;verticalAlign=middle;resizable=0;points=[];autosize=1;strokeColor=none;fillColor=none;" parent="1" vertex="1">
          <mxGeometry x="105" y="728" width="50" height="30" as="geometry" />
        </mxCell>
        <mxCell id="s6ThnofSbm5kTRvDSQZk-30" value="1" style="text;html=1;align=center;verticalAlign=middle;resizable=0;points=[];autosize=1;strokeColor=none;fillColor=none;" parent="1" vertex="1">
          <mxGeometry x="105" y="168" width="30" height="30" as="geometry" />
        </mxCell>
      </root>
    </mxGraphModel>
  </diagram>
</mxfile>
